<?xml version="1.0" standalone="no"?>
<!DOCTYPE svg PUBLIC "-//W3C//DTD SVG 20010904//EN"
 "http://www.w3.org/TR/2001/REC-SVG-20010904/DTD/svg10.dtd">
<svg version="1.0" xmlns="http://www.w3.org/2000/svg"
 width="421.000000pt" height="421.000000pt" viewBox="0 0 421.000000 421.000000"
 preserveAspectRatio="xMidYMid meet">
<metadata>
Created by potrace 1.14, written by Peter Selinger 2001-2017
</metadata>
<g transform="translate(0.000000,421.000000) scale(0.100000,-0.100000)"
fill="#000000" stroke="none">
<path d="M0 2105 l0 -2105 1038 1 c570 0 1033 2 1027 4 -5 3 -248 81 -540 176
-291 94 -536 174 -543 178 -8 5 66 114 234 346 135 187 259 357 275 377 l30
38 587 0 c323 0 592 -4 598 -8 18 -12 545 -744 540 -749 -3 -3 -252 -86 -553
-184 l-548 -178 1033 -1 1032 0 0 2105 0 2105 -2105 0 -2105 0 0 -2105z m2020
1600 l0 -464 -457 -332 c-252 -183 -470 -341 -484 -352 l-27 -19 -438 142
c-242 78 -440 143 -442 145 -3 3 675 943 697 968 6 6 1121 373 1144 376 4 1 7
-208 7 -464z m740 285 c206 -67 423 -137 482 -156 l107 -35 348 -480 c191
-264 349 -483 351 -487 5 -14 -876 -296 -890 -285 -7 5 -226 164 -485 352
l-473 343 0 457 c0 252 3 460 6 463 3 4 44 -7 92 -23 48 -15 256 -83 462 -149z
m-197 -1241 c243 -177 450 -329 460 -339 18 -17 13 -34 -151 -541 -93 -288
-173 -534 -177 -546 l-6 -23 -578 0 -577 0 -173 534 c-95 293 -173 541 -174
551 -2 13 128 113 453 351 250 183 461 333 468 333 6 1 211 -144 455 -320z
m-1878 -288 l310 -101 183 -566 184 -567 -36 -51 c-134 -191 -503 -690 -511
-690 -5 0 -166 215 -357 477 l-348 478 0 604 0 604 133 -44 c72 -24 272 -89
442 -144z m3425 -415 l0 -603 -348 -479 c-191 -263 -352 -479 -357 -479 -7 0
-511 683 -536 728 -8 13 34 151 172 580 101 309 184 564 185 565 1 2 200 68
441 147 241 79 439 143 441 144 1 1 2 -271 2 -603z"/>
<path d="M2121 2858 c-32 -162 -97 -317 -236 -568 -134 -243 -171 -362 -164
-525 8 -161 112 -285 290 -346 53 -18 80 -20 156 -17 78 4 102 10 165 40 121
58 197 147 218 257 12 66 -5 216 -36 308 -13 40 -75 176 -139 302 -114 228
-176 385 -210 534 -10 42 -21 77 -25 77 -3 0 -12 -28 -19 -62z m-206 -740
c-52 -174 -16 -375 89 -495 48 -55 143 -101 226 -112 l65 -7 -54 -17 c-69 -21
-173 -22 -234 -1 -26 9 -68 35 -95 59 -147 132 -156 378 -22 582 19 29 36 51
38 49 2 -2 -4 -28 -13 -58z"/>
</g>
</svg>
